<mxfile host="app.diagrams.net" modified="2022-02-18T03:31:21.532Z" agent="5.0 (Macintosh; Intel Mac OS X 10_15_7) AppleWebKit/537.36 (KHTML, like Gecko) Chrome/98.0.4758.102 Safari/537.36" etag="EolvDfkdt0CQvfpOgUti" version="16.5.6" type="github">
  <diagram id="HYjVrDNtItZzi546d8VE" name="第 1 页">
    <mxGraphModel dx="1863" dy="666" grid="1" gridSize="10" guides="1" tooltips="1" connect="1" arrows="1" fold="1" page="1" pageScale="1" pageWidth="827" pageHeight="1169" math="0" shadow="0">
      <root>
        <mxCell id="0" />
        <mxCell id="1" parent="0" />
        <mxCell id="S5e_tG-oPZePzeo-QC49-1" value="" style="rounded=1;whiteSpace=wrap;html=1;fillColor=#b1ddf0;strokeColor=#10739e;" vertex="1" parent="1">
          <mxGeometry x="150" y="100" width="440" height="470" as="geometry" />
        </mxCell>
        <mxCell id="S5e_tG-oPZePzeo-QC49-2" value="&lt;b&gt;&lt;font style=&quot;font-size: 14px&quot;&gt;Kafka Cluster&lt;/font&gt;&lt;/b&gt;" style="text;html=1;strokeColor=none;fillColor=none;align=center;verticalAlign=middle;whiteSpace=wrap;rounded=0;" vertex="1" parent="1">
          <mxGeometry x="210" y="100" width="100" height="30" as="geometry" />
        </mxCell>
        <mxCell id="S5e_tG-oPZePzeo-QC49-3" value="" style="rounded=1;whiteSpace=wrap;html=1;fontSize=14;fillColor=#d0cee2;strokeColor=#56517e;" vertex="1" parent="1">
          <mxGeometry x="210" y="140" width="330" height="100" as="geometry" />
        </mxCell>
        <mxCell id="S5e_tG-oPZePzeo-QC49-4" value="" style="rounded=1;whiteSpace=wrap;html=1;fontSize=14;fillColor=#d0cee2;strokeColor=#56517e;" vertex="1" parent="1">
          <mxGeometry x="210" y="290" width="330" height="100" as="geometry" />
        </mxCell>
        <mxCell id="S5e_tG-oPZePzeo-QC49-5" value="" style="rounded=1;whiteSpace=wrap;html=1;fontSize=14;fillColor=#d0cee2;strokeColor=#56517e;" vertex="1" parent="1">
          <mxGeometry x="210" y="440" width="330" height="100" as="geometry" />
        </mxCell>
        <mxCell id="S5e_tG-oPZePzeo-QC49-6" value="&lt;b&gt;Broker0&lt;/b&gt;" style="text;html=1;strokeColor=none;fillColor=none;align=center;verticalAlign=middle;whiteSpace=wrap;rounded=0;fontSize=14;" vertex="1" parent="1">
          <mxGeometry x="480" y="140" width="60" height="30" as="geometry" />
        </mxCell>
        <mxCell id="S5e_tG-oPZePzeo-QC49-7" value="&lt;b&gt;Broker1&lt;/b&gt;" style="text;html=1;strokeColor=none;fillColor=none;align=center;verticalAlign=middle;whiteSpace=wrap;rounded=0;fontSize=14;" vertex="1" parent="1">
          <mxGeometry x="480" y="290" width="60" height="30" as="geometry" />
        </mxCell>
        <mxCell id="S5e_tG-oPZePzeo-QC49-8" value="&lt;b&gt;Broker2&lt;/b&gt;" style="text;html=1;strokeColor=none;fillColor=none;align=center;verticalAlign=middle;whiteSpace=wrap;rounded=0;fontSize=14;" vertex="1" parent="1">
          <mxGeometry x="480" y="440" width="60" height="30" as="geometry" />
        </mxCell>
        <mxCell id="S5e_tG-oPZePzeo-QC49-9" value="" style="rounded=1;whiteSpace=wrap;html=1;fontSize=14;direction=south;fillColor=#fad9d5;strokeColor=#ae4132;" vertex="1" parent="1">
          <mxGeometry x="690" y="120" width="120" height="260" as="geometry" />
        </mxCell>
        <mxCell id="S5e_tG-oPZePzeo-QC49-10" value="&lt;b&gt;CG&lt;/b&gt;" style="text;html=1;strokeColor=none;fillColor=none;align=center;verticalAlign=middle;whiteSpace=wrap;rounded=0;fontSize=14;" vertex="1" parent="1">
          <mxGeometry x="680" y="120" width="60" height="30" as="geometry" />
        </mxCell>
        <mxCell id="S5e_tG-oPZePzeo-QC49-11" value="&lt;b&gt;consumer A&lt;/b&gt;" style="rounded=1;whiteSpace=wrap;html=1;fontSize=14;fillColor=#b1ddf0;strokeColor=#10739e;" vertex="1" parent="1">
          <mxGeometry x="700" y="180" width="100" height="40" as="geometry" />
        </mxCell>
        <mxCell id="S5e_tG-oPZePzeo-QC49-12" value="&lt;span&gt;&lt;b&gt;consumer B&lt;/b&gt;&lt;/span&gt;" style="rounded=1;whiteSpace=wrap;html=1;fontSize=14;fillColor=#b1ddf0;strokeColor=#10739e;" vertex="1" parent="1">
          <mxGeometry x="700" y="310" width="100" height="40" as="geometry" />
        </mxCell>
        <mxCell id="S5e_tG-oPZePzeo-QC49-13" value="&lt;span&gt;&lt;b&gt;consumer C&lt;/b&gt;&lt;/span&gt;" style="rounded=1;whiteSpace=wrap;html=1;fontSize=14;fillColor=#b1ddf0;strokeColor=#10739e;" vertex="1" parent="1">
          <mxGeometry x="700" y="470" width="100" height="40" as="geometry" />
        </mxCell>
        <mxCell id="S5e_tG-oPZePzeo-QC49-14" value="&lt;span&gt;&lt;b&gt;producer A&lt;/b&gt;&lt;/span&gt;" style="rounded=1;whiteSpace=wrap;html=1;fontSize=14;fillColor=#b1ddf0;strokeColor=#10739e;" vertex="1" parent="1">
          <mxGeometry x="-30" y="240" width="100" height="40" as="geometry" />
        </mxCell>
        <mxCell id="S5e_tG-oPZePzeo-QC49-15" value="&lt;b&gt;producer B&lt;/b&gt;" style="rounded=1;whiteSpace=wrap;html=1;fontSize=14;fillColor=#b1ddf0;strokeColor=#10739e;" vertex="1" parent="1">
          <mxGeometry x="-30" y="470" width="100" height="40" as="geometry" />
        </mxCell>
        <mxCell id="S5e_tG-oPZePzeo-QC49-16" value="&lt;b&gt;topic A&lt;br&gt;partition 0&lt;/b&gt;" style="rounded=1;whiteSpace=wrap;html=1;fontSize=14;fillColor=#b0e3e6;strokeColor=#0e8088;" vertex="1" parent="1">
          <mxGeometry x="230" y="160" width="120" height="60" as="geometry" />
        </mxCell>
        <mxCell id="S5e_tG-oPZePzeo-QC49-17" value="&lt;b&gt;topic A&lt;br&gt;partition 1&lt;/b&gt;" style="rounded=1;whiteSpace=wrap;html=1;fontSize=14;fillColor=#b0e3e6;strokeColor=#0e8088;" vertex="1" parent="1">
          <mxGeometry x="370" y="160" width="120" height="60" as="geometry" />
        </mxCell>
        <mxCell id="S5e_tG-oPZePzeo-QC49-20" value="&lt;b&gt;topic A&lt;br&gt;partition 0&lt;/b&gt;" style="rounded=1;whiteSpace=wrap;html=1;fontSize=14;fillColor=#b0e3e6;strokeColor=#0e8088;" vertex="1" parent="1">
          <mxGeometry x="230" y="310" width="120" height="60" as="geometry" />
        </mxCell>
        <mxCell id="S5e_tG-oPZePzeo-QC49-21" value="&lt;b&gt;topic A&lt;br&gt;partition 1&lt;/b&gt;" style="rounded=1;whiteSpace=wrap;html=1;fontSize=14;fillColor=#b0e3e6;strokeColor=#0e8088;" vertex="1" parent="1">
          <mxGeometry x="370" y="310" width="120" height="60" as="geometry" />
        </mxCell>
        <mxCell id="S5e_tG-oPZePzeo-QC49-23" value="&lt;b&gt;leader&lt;/b&gt;" style="text;html=1;strokeColor=none;fillColor=none;align=center;verticalAlign=middle;whiteSpace=wrap;rounded=0;fontSize=14;" vertex="1" parent="1">
          <mxGeometry x="260" y="220" width="60" height="20" as="geometry" />
        </mxCell>
        <mxCell id="S5e_tG-oPZePzeo-QC49-24" value="&lt;b&gt;follower&lt;/b&gt;" style="text;html=1;strokeColor=none;fillColor=none;align=center;verticalAlign=middle;whiteSpace=wrap;rounded=0;fontSize=14;" vertex="1" parent="1">
          <mxGeometry x="260" y="370" width="60" height="20" as="geometry" />
        </mxCell>
        <mxCell id="S5e_tG-oPZePzeo-QC49-25" value="&lt;b&gt;follower&lt;/b&gt;" style="text;html=1;strokeColor=none;fillColor=none;align=center;verticalAlign=middle;whiteSpace=wrap;rounded=0;fontSize=14;" vertex="1" parent="1">
          <mxGeometry x="400" y="220" width="60" height="20" as="geometry" />
        </mxCell>
        <mxCell id="S5e_tG-oPZePzeo-QC49-26" value="&lt;b&gt;leader&lt;/b&gt;" style="text;html=1;strokeColor=none;fillColor=none;align=center;verticalAlign=middle;whiteSpace=wrap;rounded=0;fontSize=14;" vertex="1" parent="1">
          <mxGeometry x="400" y="370" width="60" height="20" as="geometry" />
        </mxCell>
      </root>
    </mxGraphModel>
  </diagram>
</mxfile>
